<?xml version="1.0" encoding="utf-8" ?>
<svg baseProfile="full" height="400px" version="1.1" width="900px" xmlns="http://www.w3.org/2000/svg" xmlns:ev="http://www.w3.org/2001/xml-events" xmlns:xlink="http://www.w3.org/1999/xlink"><defs /><rect fill="#a3c9f9" height="200" stroke="black" stroke-width="1" width="300" x="400" y="100" /><text font-size="14px" x="500" y="90">Outer Reservoir</text><text font-size="12px" x="500" y="320">kₒ, φₒ, cₜₒ</text><rect fill="#d9d9d9" height="160" stroke="black" stroke-width="1" width="150" x="250" y="120" /><text font-size="14px" x="265" y="100">Inner Reservoir</text><text font-size="12px" x="280" y="310">kᵢ, φᵢ, cₜᵢ</text><rect fill="#fcb75d" height="80" stroke="black" stroke-width="1" width="20" x="230" y="160" /><text font-size="14px" x="100" y="100">Hydraulic Fracture</text><text font-size="12px" x="100" y="310">k_F, φ_F, cₜ_F</text><line stroke="black" stroke-width="3" x1="230" x2="150" y1="200" y2="200" /><text font-size="12px" x="50" y="220">Horizontal Well</text><line stroke="black" stroke-width="1.5" x1="250" x2="280" y1="200" y2="200" /><polygon fill="black" points="280,200 275,195 275,205" /><line stroke="black" stroke-width="1.5" x1="300" x2="330" y1="200" y2="200" /><polygon fill="black" points="330,200 325,195 325,205" /><line stroke="black" stroke-width="1.5" x1="350" x2="380" y1="200" y2="200" /><polygon fill="black" points="380,200 375,195 375,205" /><line stroke="black" stroke-width="1.5" x1="400" x2="430" y1="200" y2="200" /><polygon fill="black" points="430,200 425,195 425,205" /><line stroke="black" stroke-width="1.5" x1="450" x2="480" y1="200" y2="200" /><polygon fill="black" points="480,200 475,195 475,205" /><line stroke="black" stroke-width="1.5" x1="500" x2="530" y1="200" y2="200" /><polygon fill="black" points="530,200 525,195 525,205" /><line stroke="black" stroke-width="1.5" x1="550" x2="580" y1="200" y2="200" /><polygon fill="black" points="580,200 575,195 575,205" /><line stroke="black" stroke-width="1.5" x1="600" x2="630" y1="200" y2="200" /><polygon fill="black" points="630,200 625,195 625,205" /><line stroke="black" stroke-width="1.5" x1="650" x2="680" y1="200" y2="200" /><polygon fill="black" points="680,200 675,195 675,205" /><line stroke="#cccccc" stroke-width="0.5" x1="250" x2="250" y1="120" y2="280" /><line stroke="#cccccc" stroke-width="0.5" x1="275" x2="275" y1="120" y2="280" /><line stroke="#cccccc" stroke-width="0.5" x1="300" x2="300" y1="120" y2="280" /><line stroke="#cccccc" stroke-width="0.5" x1="325" x2="325" y1="120" y2="280" /><line stroke="#cccccc" stroke-width="0.5" x1="350" x2="350" y1="120" y2="280" /><line stroke="#cccccc" stroke-width="0.5" x1="375" x2="375" y1="120" y2="280" /><line stroke="#cccccc" stroke-width="0.5" x1="400" x2="400" y1="120" y2="280" /><line stroke="#cccccc" stroke-width="0.5" x1="425" x2="425" y1="120" y2="280" /><line stroke="#cccccc" stroke-width="0.5" x1="450" x2="450" y1="120" y2="280" /><line stroke="#cccccc" stroke-width="0.5" x1="475" x2="475" y1="120" y2="280" /><line stroke="#cccccc" stroke-width="0.5" x1="500" x2="500" y1="120" y2="280" /><line stroke="#cccccc" stroke-width="0.5" x1="525" x2="525" y1="120" y2="280" /><line stroke="#cccccc" stroke-width="0.5" x1="550" x2="550" y1="120" y2="280" /><line stroke="#cccccc" stroke-width="0.5" x1="575" x2="575" y1="120" y2="280" /><line stroke="#cccccc" stroke-width="0.5" x1="600" x2="600" y1="120" y2="280" /><line stroke="#cccccc" stroke-width="0.5" x1="625" x2="625" y1="120" y2="280" /><line stroke="#cccccc" stroke-width="0.5" x1="650" x2="650" y1="120" y2="280" /><line stroke="#cccccc" stroke-width="0.5" x1="675" x2="675" y1="120" y2="280" /><line stroke="#cccccc" stroke-width="0.5" x1="250" x2="700" y1="120" y2="120" /><line stroke="#cccccc" stroke-width="0.5" x1="250" x2="700" y1="140" y2="140" /><line stroke="#cccccc" stroke-width="0.5" x1="250" x2="700" y1="160" y2="160" /><line stroke="#cccccc" stroke-width="0.5" x1="250" x2="700" y1="180" y2="180" /><line stroke="#cccccc" stroke-width="0.5" x1="250" x2="700" y1="200" y2="200" /><line stroke="#cccccc" stroke-width="0.5" x1="250" x2="700" y1="220" y2="220" /><line stroke="#cccccc" stroke-width="0.5" x1="250" x2="700" y1="240" y2="240" /><line stroke="#cccccc" stroke-width="0.5" x1="250" x2="700" y1="260" y2="260" /><line stroke="#cccccc" stroke-width="0.5" x1="250" x2="700" y1="280" y2="280" /></svg>